name Run_200 02_newCOP3_v24.mot
datacolumns 19
datarows 94
range 3.885 3.978
DataType=double
version=3
OpenSimVersion=4.3-2021-08-27-4bc7ad9
endheader
time	R_ground_force_vx	R_ground_force_vy	R_ground_force_vz	R_ground_force_px	R_ground_force_py	R_ground_force_pz	L_ground_force_vx	L_ground_force_vy	L_ground_force_vz	L_ground_force_px	L_ground_force_py	L_ground_force_pz	R_ground_torque_x	R_ground_torque_y	R_ground_torque_z	L_ground_torque_x	L_ground_torque_y	L_ground_torque_z
3.885	150.152969	1283.029297	-96.87911200000001	0.604178	0	-0.335141	0.501552	1.209289	-0.188583	0	0	0	0	-0.327543	0	0	0	0
3.886	151.423798	1269.199585	-95.62876900000001	0.602449	0	-0.335134	0.47487	1.159419	-0.167567	0	0	0	0	-0.425424	0	0	0	0
3.887	152.621689	1255.204956	-94.38183600000001	0.6007169999999999	0	-0.335125	0.449434	1.112741	-0.148239	0	0	0	0	-0.51986	0	0	0	0
3.888	153.74472	1241.050293	-93.13809999999999	0.598984	0	-0.335115	0.425523	1.069957	-0.130641	0	0	0	0	-0.6107900000000001	0	0	0	0
3.889	154.790985	1226.740479	-91.89727000000001	0.597249	0	-0.335104	0.403406	1.031729	-0.114801	0	0	0	0	-0.69816	0	0	0	0
3.89	155.758514	1212.280762	-90.658981	0.595513	0	-0.33509	0.383332	0.99865	-0.100737	0	0	0	0	-0.781932	0	0	0	0
3.891	156.645416	1197.676025	-89.422821	0.593777	0	-0.335075	0.365529	0.97123	-0.08845500000000001	0	0	0	0	-0.8620719999999999	0	0	0	0
3.892	157.449783	1182.931519	-88.188339	0.592039	0	-0.335058	0.350192	0.949882	-0.077954	0	0	0	0	-0.9385599999999999	0	0	0	0
3.893	158.169846	1168.052124	-86.95502500000001	0.590302	0	-0.335038	0.337484	0.934908	-0.06922499999999999	0	0	0	0	-1.011384	0	0	0	0
3.894	158.803864	1153.043091	-85.72236599999999	0.588565	0	-0.335017	0.327532	0.926498	-0.062248	0	0	0	0	-1.08054	0	0	0	0
3.895	159.350266	1137.909424	-84.489822	0.58683	0	-0.334994	0.320425	0.924727	-0.056998	0	0	0	0	-1.146035	0	0	0	0
3.896	159.807571	1122.65625	-83.256874	0.5850959999999999	0	-0.334968	0.316215	0.929563	-0.053441	0	0	0	0	-1.207881	0	0	0	0
3.897	160.174469	1107.289063	-82.023003	0.583364	0	-0.334941	0.314917	0.94087	-0.051538	0	0	0	0	-1.266101	0	0	0	0
3.898	160.449829	1091.812988	-80.787712	0.581635	0	-0.33491	0.316512	0.958423	-0.051242	0	0	0	0	-1.320724	0	0	0	0
3.899	160.632645	1076.233643	-79.550552	0.579909	0	-0.334878	0.320948	0.981922	-0.052497	0	0	0	0	-1.371787	0	0	0	0
3.9	160.722137	1060.556885	-78.311134	0.578187	0	-0.334842	0.328147	1.011005	-0.055243	0	0	0	0	-1.419333	0	0	0	0
3.901	160.717712	1044.78833	-77.06909899999999	0.576469	0	-0.334804	0.337998	1.045266	-0.05941	0	0	0	0	-1.463411	0	0	0	0
3.902	160.618973	1028.934326	-75.824181	0.574757	0	-0.334763	0.35037	1.08427	-0.06492299999999999	0	0	0	0	-1.504078	0	0	0	0
3.903	160.425751	1013.001099	-74.576195	0.5730499999999999	0	-0.334719	0.365106	1.127566	-0.071697	0	0	0	0	-1.541393	0	0	0	0
3.904	160.138092	996.995178	-73.32501999999999	0.57135	0	-0.334672	0.382026	1.174698	-0.079642	0	0	0	0	-1.575423	0	0	0	0
3.905	159.756287	980.923462	-72.070633	0.5696560000000001	0	-0.334622	0.400928	1.225211	-0.088656	0	0	0	0	-1.606239	0	0	0	0
3.906	159.280838	964.792908	-70.813118	0.5679689999999999	0	-0.334569	0.421587	1.278654	-0.098634	0	0	0	0	-1.633916	0	0	0	0
3.907	158.712524	948.6108400000001	-69.552628	0.566289	0	-0.334513	0.443752	1.33458	-0.109461	0	0	0	0	-1.658532	0	0	0	0
3.908	158.052307	932.384644	-68.289429	0.564617	0	-0.334453	0.46715	1.392541	-0.121017	0	0	0	0	-1.68017	0	0	0	0
3.909	157.301407	916.122192	-67.023872	0.562952	0	-0.33439	0.491479	1.452075	-0.133174	0	0	0	0	-1.698915	0	0	0	0
3.91	156.461227	899.83136	-65.756401	0.561296	0	-0.334324	0.516412	1.512701	-0.1458	0	0	0	0	-1.714855	0	0	0	0
3.911	155.533356	883.520325	-64.487526	0.559648	0	-0.334255	0.541594	1.573899	-0.158758	0	0	0	0	-1.72808	0	0	0	0
3.912	154.519547	867.197632	-63.21785	0.5580079999999999	0	-0.334183	0.566647	1.635108	-0.171909	0	0	0	0	-1.738684	0	0	0	0
3.913	153.421661	850.871887	-61.948036	0.556377	0	-0.334107	0.591172	1.695708	-0.185111	0	0	0	0	-1.746761	0	0	0	0
3.914	152.241638	834.552063	-60.678806	0.554754	0	-0.334029	0.614754	1.755017	-0.198223	0	0	0	0	-1.752405	0	0	0	0
3.915	150.981476	818.247192	-59.410927	0.553139	0	-0.333948	0.636972	1.81229	-0.211104	0	0	0	0	-1.755714	0	0	0	0
3.916	149.643188	801.966797	-58.145195	0.5515330000000001	0	-0.333864	0.657403	1.866724	-0.223617	0	0	0	0	-1.756785	0	0	0	0
3.917	148.22879	785.720398	-56.882431	0.549936	0	-0.333778	0.675639	1.917466	-0.23563	0	0	0	0	-1.755716	0	0	0	0
3.918	146.740234	769.517822	-55.623463	0.548347	0	-0.333689	0.691294	1.963629	-0.247017	0	0	0	0	-1.752605	0	0	0	0
3.919	145.179459	753.369019	-54.369118	0.546768	0	-0.333598	0.704018	2.004313	-0.257659	0	0	0	0	-1.747549	0	0	0	0
3.92	143.548325	737.284058	-53.120197	0.545199	0	-0.333505	0.713507	2.038628	-0.267447	0	0	0	0	-1.740647	0	0	0	0
3.921	141.848648	721.273193	-51.877476	0.543639	0	-0.33341	0.719512	2.065726	-0.276284	0	0	0	0	-1.731995	0	0	0	0
3.922	140.082214	705.346741	-50.641693	0.542091	0	-0.333313	0.721852	2.084822	-0.284084	0	0	0	0	-1.721689	0	0	0	0
3.923	138.250778	689.514954	-49.413525	0.540553	0	-0.333214	0.720413	2.09523	-0.290773	0	0	0	0	-1.709823	0	0	0	0
3.924	136.35611	673.788269	-48.193588	0.539028	0	-0.333114	0.715158	2.096388	-0.296291	0	0	0	0	-1.696493	0	0	0	0
3.925	134.40007	658.176819	-46.98243	0.537517	0	-0.333013	0.7061229999999999	2.087879	-0.300593	0	0	0	0	-1.68179	0	0	0	0
3.926	132.384537	642.6908570000001	-45.780525	0.536019	0	-0.33291	0.693419	2.069458	-0.303649	0	0	0	0	-1.665803	0	0	0	0
3.927	130.3116	627.340332	-44.588264	0.534537	0	-0.332806	0.677224	2.041062	-0.30544	0	0	0	0	-1.648621	0	0	0	0
3.928	128.183487	612.135071	-43.405949	0.533072	0	-0.332701	0.657782	2.002821	-0.305964	0	0	0	0	-1.630331	0	0	0	0
3.929	126.002663	597.084717	-42.233807	0.531625	0	-0.332596	0.635389	1.95506	-0.305231	0	0	0	0	-1.611015	0	0	0	0
3.93	123.771828	582.198486	-41.071972	0.530196	0	-0.332489	0.610387	1.898296	-0.303265	0	0	0	0	-1.590755	0	0	0	0
3.931	121.49398	567.485352	-39.920509	0.528788	0	-0.332382	0.583153	1.833226	-0.300102	0	0	0	0	-1.56963	0	0	0	0
3.932	119.172394	552.953918	-38.779404	0.527401	0	-0.332273	0.55409	1.760706	-0.295786	0	0	0	0	-1.547715	0	0	0	0
3.933	116.810631	538.612427	-37.648586	0.526037	0	-0.332164	0.523612	1.681728	-0.290373	0	0	0	0	-1.525082	0	0	0	0
3.934	114.412537	524.468689	-36.527916	0.5246960000000001	0	-0.332053	0.492137	1.597394	-0.283928	0	0	0	0	-1.5018	0	0	0	0
3.935	111.982208	510.529846	-35.417225	0.523378	0	-0.331941	0.460076	1.508874	-0.276519	0	0	0	0	-1.477936	0	0	0	0
3.936	109.523949	496.802734	-34.316303	0.522085	0	-0.331827	0.427823	1.417382	-0.268223	0	0	0	0	-1.453553	0	0	0	0
3.937	107.042259	483.293579	-33.224926	0.520815	0	-0.331711	0.395748	1.324133	-0.259118	0	0	0	0	-1.428709	0	0	0	0
3.938	104.54174	470.007996	-32.142864	0.5195689999999999	0	-0.331593	0.364189	1.230313	-0.249288	0	0	0	0	-1.40346	0	0	0	0
3.939	102.027107	456.951019	-31.069904	0.518346	0	-0.331473	0.333449	1.137051	-0.238814	0	0	0	0	-1.377858	0	0	0	0
3.94	99.50308200000001	444.127045	-30.005854	0.517145	0	-0.331349	0.30379	1.045389	-0.22778	0	0	0	0	-1.351952	0	0	0	0
3.941	96.974373	431.539825	-28.950567	0.515964	0	-0.331221	0.275433	0.9562659999999999	-0.216266	0	0	0	0	-1.325786	0	0	0	0
3.942	94.44562500000001	419.192444	-27.903954	0.514802	0	-0.331089	0.248555	0.8705039999999999	-0.204352	0	0	0	0	-1.299401	0	0	0	0
3.943	91.921402	407.087372	-26.865988	0.513656	0	-0.330953	0.223293	0.788794	-0.192114	0	0	0	0	-1.272836	0	0	0	0
3.944	89.406113	395.22641	-25.836731	0.512525	0	-0.330812	0.199742	0.711699	-0.179624	0	0	0	0	-1.246124	0	0	0	0
3.945	86.904045	383.610657	-24.816332	0.5114069999999999	0	-0.330664	0.177963	0.6396539999999999	-0.166948	0	0	0	0	-1.219296	0	0	0	0
3.946	84.41928900000001	372.240631	-23.80504	0.5103	0	-0.330511	0.157981	0.572971	-0.154148	0	0	0	0	-1.192379	0	0	0	0
3.947	81.95575700000001	361.116211	-22.803217	0.509201	0	-0.330351	0.139792	0.511852	-0.141283	0	0	0	0	-1.165398	0	0	0	0
3.948	79.517143	350.236664	-21.811327	0.508108	0	-0.330184	0.12337	0.456396	-0.128404	0	0	0	0	-1.138373	0	0	0	0
3.949	77.106964	339.600708	-20.829952	0.50702	0	-0.330009	0.108666	0.406619	-0.115557	0	0	0	0	-1.111325	0	0	0	0
3.95	74.728477	329.206451	-19.859787	0.505935	0	-0.329826	0.09561600000000001	0.362461	-0.102784	0	0	0	0	-1.084268	0	0	0	0
3.951	72.384727	319.051483	-18.901632	0.504852	0	-0.329634	0.084144	0.323807	-0.09012000000000001	0	0	0	0	-1.057216	0	0	0	0
3.952	70.078506	309.132904	-17.956394	0.5037700000000001	0	-0.329433	0.074166	0.290497	-0.077598	0	0	0	0	-1.03018	0	0	0	0
3.953	67.81237	299.447296	-17.02507	0.502687	0	-0.329222	0.065594	0.262336	-0.065246	0	0	0	0	-1.003171	0	0	0	0
3.954	65.58858499999999	289.990845	-16.108747	0.501603	0	-0.329001	0.058337	0.239111	-0.053088	0	0	0	0	-0.976197	0	0	0	0
3.955	63.409134	280.759277	-15.208583	0.500517	0	-0.32877	0.052303	0.220591	-0.041144	0	0	0	0	-0.949263	0	0	0	0
3.956	61.275703	271.747955	-14.325789	0.499427	0	-0.328529	0.047404	0.206543	-0.029434	0	0	0	0	-0.922377	0	0	0	0
3.957	59.189671	262.951874	-13.461624	0.498334	0	-0.328277	0.043553	0.196728	-0.017975	0	0	0	0	-0.895543	0	0	0	0
3.958	57.152081	254.365799	-12.617368	0.497235	0	-0.328015	0.04067	0.19091	-0.006781	0	0	0	0	-0.868767	0	0	0	0
3.959	55.163647	245.984238	-11.794309	0.49613	0	-0.327743	0.038674	0.188851	0.004133	0	0	0	0	-0.8420530000000001	0	0	0	0
3.96	53.224751	237.801514	-10.993723	0.495016	0	-0.327461	0.037492	0.190317	0.014752	0	0	0	0	-0.815408	0	0	0	0
3.961	51.335445	229.81189	-10.216852	0.493891	0	-0.327169	0.037051	0.195066	0.025063	0	0	0	0	-0.788836	0	0	0	0
3.962	49.495472	222.009552	-9.464892000000001	0.492754	0	-0.326869	0.037283	0.202854	0.03505	0	0	0	0	-0.762344	0	0	0	0
3.963	47.704273	214.388748	-8.738968	0.491601	0	-0.326561	0.03812	0.213424	0.044699	0	0	0	0	-0.735941	0	0	0	0
3.964	45.961044	206.943832	-8.040118	0.490431	0	-0.326246	0.039495	0.226505	0.053993	0	0	0	0	-0.709636	0	0	0	0
3.965	44.264744	199.669342	-7.36928	0.489241	0	-0.325926	0.041342	0.241804	0.062915	0	0	0	0	-0.68344	0	0	0	0
3.966	42.614151	192.560028	-6.727272	0.488027	0	-0.325601	0.043592	0.259005	0.071446	0	0	0	0	-0.657366	0	0	0	0
3.967	41.007923	185.610977	-6.114783	0.486788	0	-0.325273	0.046175	0.277764	0.079567	0	0	0	0	-0.631429	0	0	0	0
3.968	39.444626	178.817612	-5.532362	0.485522	0	-0.324943	0.049018	0.29771	0.087259	0	0	0	0	-0.605646	0	0	0	0
3.969	37.922802	172.17569	-4.980403	0.484227	0	-0.324612	0.052046	0.318439	0.094501	0	0	0	0	-0.580036	0	0	0	0
3.97	36.440998	165.681412	-4.459151	0.482902	0	-0.324281	0.05518	0.339526	0.101271	0	0	0	0	-0.5546219999999999	0	0	0	0
3.971	34.997829	159.331329	-3.968683	0.481547	0	-0.323952	0.058341	0.36052	0.107551	0	0	0	0	-0.529427	0	0	0	0
3.972	33.59198	153.122421	-3.508918	0.480163	0	-0.323625	0.061447	0.380958	0.113319	0	0	0	0	-0.504479	0	0	0	0
3.973	32.22226	147.052017	-3.079613	0.47875	0	-0.323301	0.064419	0.400372	0.118558	0	0	0	0	-0.479806	0	0	0	0
3.974	30.887579	141.117798	-2.680371	0.477311	0	-0.322981	0.067177	0.418302	0.123251	0	0	0	0	-0.455441	0	0	0	0
3.975	29.586992	135.317719	-2.310639	0.475849	0	-0.322664	0.069647	0.434306	0.127384	0	0	0	0	-0.431417	0	0	0	0
3.976	28.319658	129.65007	-1.969725	0.474366	0	-0.32235	0.07176100000000001	0.447978	0.130946	0	0	0	0	-0.40777	0	0	0	0
3.977	27.084843	124.113304	-1.656804	0.472866	0	-0.32204	0.073459	0.45896	0.133927	0	0	0	0	-0.384537	0	0	0	0
3.978	25.881887	118.706116	-1.370929	0.471354	0	-0.321731	0.07469000000000001	0.466954	0.136324	0	0	0	0	-0.36176	0	0	0	0
